<?xml version="1.0" standalone="no"?>
<!DOCTYPE svg PUBLIC "-//W3C//DTD SVG 20010904//EN"
 "http://www.w3.org/TR/2001/REC-SVG-20010904/DTD/svg10.dtd">
<svg version="1.0" xmlns="http://www.w3.org/2000/svg"
 width="612.000000pt" height="612.000000pt" viewBox="0 0 612.000000 612.000000"
 preserveAspectRatio="xMidYMid meet">
<metadata>
Created by potrace 1.14, written by Peter Selinger 2001-2017
</metadata>
<g transform="translate(0.000000,612.000000) scale(0.100000,-0.100000)"
fill="#000000" stroke="none">
<path d="M2866 4503 c-3 -4 -32 -8 -64 -9 -31 -1 -58 -3 -59 -4 -2 -1 -12 -4
-23 -5 -11 -1 -21 -3 -22 -5 -3 -2 -19 -5 -63 -13 -16 -3 -44 -10 -62 -15 -17
-6 -34 -8 -37 -4 -3 3 -6 1 -6 -5 0 -9 -6 -11 -50 -15 -11 -1 -20 -6 -20 -10
0 -4 -6 -8 -14 -8 -19 0 -222 -105 -242 -125 -9 -8 -20 -12 -26 -9 -7 4 -8 2
-4 -4 4 -7 1 -12 -7 -12 -8 0 -18 -7 -21 -16 -3 -8 -10 -12 -16 -9 -5 3 -10 1
-10 -4 0 -6 -4 -11 -10 -11 -5 0 -20 -10 -33 -22 -13 -13 -47 -43 -76 -68 -28
-25 -51 -51 -51 -57 0 -7 -7 -13 -15 -13 -8 0 -15 -3 -15 -7 0 -5 -20 -30 -45
-58 -24 -27 -45 -53 -45 -57 0 -4 -13 -21 -29 -37 -16 -16 -27 -32 -25 -34 3
-2 -2 -10 -11 -17 -8 -7 -15 -18 -15 -26 0 -7 -8 -18 -17 -23 -10 -6 -15 -11
-11 -11 4 0 -6 -24 -23 -52 -18 -29 -32 -59 -33 -66 -1 -7 -9 -21 -17 -30 -8
-10 -16 -26 -17 -37 -2 -11 -8 -25 -13 -31 -5 -6 -10 -19 -12 -30 -2 -10 -9
-29 -15 -41 -7 -13 -10 -23 -6 -23 3 0 2 -6 -3 -12 -6 -7 -14 -26 -18 -43 -5
-16 -10 -36 -12 -42 -1 -7 -5 -21 -7 -30 -3 -10 -5 -18 -6 -18 -3 0 -11 -38
-15 -70 -2 -16 -5 -30 -6 -30 -1 0 -3 -9 -4 -20 -2 -11 -6 -35 -9 -53 -23
-120 -23 -369 0 -532 4 -25 7 -51 7 -57 0 -7 3 -13 7 -13 3 0 7 -15 9 -32 4
-41 9 -73 11 -73 2 0 10 -34 14 -55 1 -8 8 -25 14 -37 7 -13 10 -23 7 -23 -2
0 5 -26 16 -58 22 -61 28 -78 30 -90 1 -4 8 -16 15 -27 8 -11 14 -27 14 -37 0
-10 5 -18 10 -18 6 0 10 -9 10 -20 0 -11 5 -20 11 -20 5 0 7 -4 4 -10 -3 -5 2
-10 13 -10 11 0 31 18 50 48 17 26 42 60 56 75 14 16 26 30 26 32 0 5 14 22
55 70 11 13 31 38 45 56 14 19 37 46 53 61 15 15 27 30 27 32 0 6 49 60 123
138 26 27 47 54 47 59 0 5 6 9 13 9 6 0 23 16 37 35 14 19 31 35 38 35 7 0 11
4 7 9 -3 5 8 18 25 27 16 10 30 23 31 29 0 5 20 26 44 45 24 19 44 41 44 48 1
6 6 12 11 12 6 0 24 14 42 30 17 17 35 30 40 30 5 0 6 5 3 10 -3 6 2 10 11 10
13 0 15 3 7 11 -6 6 -31 11 -57 11 -28 0 -52 6 -61 15 -8 8 -15 12 -15 8 0 -3
-13 1 -30 10 -35 18 -120 99 -120 114 0 6 -4 11 -8 11 -4 0 -8 10 -9 22 -1 11
-6 24 -10 27 -4 3 -9 22 -10 41 -1 19 -3 56 -5 83 -1 26 -6 47 -10 47 -4 0 -5
9 -3 20 2 11 -1 22 -7 26 -7 4 -6 9 3 15 10 6 7 10 -11 17 -16 6 -29 6 -37 0
-9 -7 -13 -6 -13 3 0 11 -2 11 -10 -1 -6 -10 -10 -11 -10 -3 0 7 -3 12 -7 11
-14 -4 -53 13 -53 23 0 5 -4 8 -9 6 -13 -3 -62 64 -55 74 3 5 1 9 -5 9 -15 0
-7 111 12 150 18 37 81 85 97 75 6 -4 16 -3 23 2 16 10 37 13 37 5 0 -4 12 -8
26 -9 30 -1 94 -59 94 -84 0 -10 5 -19 10 -21 13 -4 19 -76 9 -112 -11 -40
-50 -95 -72 -102 -10 -3 -14 -10 -10 -17 8 -13 10 -23 17 -102 3 -27 9 -66 12
-85 4 -19 7 -38 6 -43 -9 -38 122 -187 166 -187 7 0 25 -6 40 -14 15 -8 43
-15 62 -17 19 -2 38 -8 42 -14 5 -6 8 -5 8 3 0 6 6 12 14 12 8 0 16 7 20 15 3
8 10 15 15 15 13 0 76 61 74 71 -2 5 3 6 10 3 7 -2 32 14 57 36 24 22 50 40
57 40 7 0 13 4 13 9 0 5 15 18 34 29 28 17 35 26 34 51 -1 17 -5 31 -11 31 -5
0 -7 7 -3 15 10 28 -38 54 -86 46 -5 0 -8 4 -8 10 0 6 -7 9 -15 5 -8 -3 -15
-2 -15 2 0 4 -8 8 -17 9 -10 1 -31 7 -48 14 -16 7 -34 11 -38 10 -5 -1 -6 3
-2 9 3 5 2 10 -3 10 -13 0 -77 60 -77 72 0 5 -6 12 -13 17 -7 4 -15 21 -18 37
-3 16 -10 31 -16 35 -7 4 -7 9 1 13 6 4 8 13 4 19 -8 12 -12 43 -15 100 -2 20
-5 37 -9 37 -4 0 -6 8 -6 18 0 57 0 57 -57 57 -43 1 -61 6 -90 28 -37 29 -70
79 -71 109 0 9 -3 19 -6 22 -8 8 1 67 10 62 3 -2 6 8 7 23 3 73 135 130 212
90 35 -18 83 -71 77 -86 -2 -6 0 -13 6 -15 8 -3 12 -63 7 -122 -1 -10 -18 -37
-38 -58 -28 -31 -36 -47 -34 -71 1 -18 3 -32 5 -32 1 0 3 -16 4 -35 14 -178
31 -215 140 -309 9 -7 19 -10 22 -7 4 3 15 -2 26 -11 10 -10 21 -17 23 -15 2
1 5 2 7 1 1 0 13 -2 26 -5 14 -2 31 -10 40 -17 11 -9 13 -9 8 0 -6 9 1 11 23
8 21 -2 30 1 30 11 0 8 -3 14 -7 14 -5 0 -8 19 -9 42 -1 73 -10 168 -17 175
-12 11 -8 25 5 17 7 -5 8 -3 3 5 -11 20 -15 81 -4 81 5 0 9 -9 9 -19 0 -11 3
-22 8 -24 4 -3 7 -28 7 -56 0 -28 2 -51 5 -51 3 0 6 -15 7 -32 1 -18 4 -51 7
-73 11 -86 18 -141 21 -170 2 -16 4 -33 4 -37 1 -5 6 -8 12 -8 5 0 7 4 4 10
-3 5 0 7 8 4 8 -3 18 0 22 5 3 6 11 9 16 6 5 -4 9 -2 9 3 0 6 24 25 53 43 28
19 54 37 55 41 2 5 7 6 12 3 4 -3 13 2 20 10 7 8 18 15 24 15 7 0 27 16 46 35
19 19 30 35 26 35 -5 0 -3 6 3 14 6 8 10 18 9 24 -2 5 2 10 7 10 6 0 9 -3 8
-7 -7 -28 -12 -64 -7 -53 3 6 14 12 24 12 10 0 22 5 25 10 4 6 26 20 51 31 24
12 44 25 44 31 0 5 4 7 9 3 5 -3 12 -1 16 5 4 6 10 8 14 5 5 -2 19 4 31 15 13
11 31 20 42 20 10 0 18 4 18 9 0 5 15 15 34 21 19 6 40 17 46 25 7 8 16 12 21
10 4 -3 16 -1 26 4 31 18 98 44 106 42 4 -1 15 6 24 15 13 12 17 13 24 2 7
-10 9 -10 9 2 0 8 -12 24 -26 37 -29 24 -53 84 -49 120 1 13 -1 23 -5 23 -4 0
-7 8 -6 17 1 12 -8 17 -34 20 -19 1 -48 4 -65 6 -16 2 -36 -1 -42 -6 -9 -6
-13 -6 -13 1 0 7 -10 8 -30 2 -19 -5 -30 -5 -30 1 0 6 -7 6 -17 1 -10 -5 -26
-8 -35 -7 -10 2 -20 -1 -23 -5 -3 -5 -14 -7 -25 -5 -12 2 -18 0 -15 -5 3 -4 0
-10 -5 -12 -6 -2 -12 -13 -13 -26 0 -12 -5 -22 -9 -22 -4 0 -5 -9 -3 -20 2
-11 0 -20 -5 -20 -5 0 -7 -6 -4 -14 3 -8 1 -17 -5 -21 -6 -3 -11 -14 -11 -24
0 -10 -7 -32 -16 -49 -13 -28 -19 -49 -28 -99 -1 -7 -5 -16 -9 -19 -4 -4 -7
-14 -7 -23 0 -30 -16 -44 -36 -32 -11 6 -14 11 -7 11 10 0 29 55 25 73 -1 4 3
7 8 7 5 0 9 3 9 8 -1 4 0 9 1 12 1 3 4 19 6 35 3 17 9 32 15 33 5 2 7 8 4 13
-3 4 1 22 10 38 8 17 17 40 19 53 3 13 5 23 6 23 2 0 11 38 12 53 1 6 5 12 10
12 5 0 7 4 4 9 -3 5 1 14 9 21 8 7 15 9 15 5 0 -4 6 -2 13 4 8 6 17 8 20 4 4
-3 13 0 22 7 9 8 15 8 15 2 0 -7 10 -8 28 -3 39 11 222 11 222 -1 0 -5 5 -6
10 -3 6 3 10 0 10 -7 0 -7 10 2 21 20 12 17 25 32 31 32 5 0 6 5 3 11 -4 6 2
13 14 16 12 3 21 9 21 12 0 9 17 11 78 13 33 1 50 -5 79 -29 38 -30 74 -82 66
-95 -2 -5 0 -8 4 -8 13 0 14 -45 3 -75 -11 -29 0 -32 61 -14 l38 12 -27 36
c-15 20 -30 38 -34 39 -5 2 -8 8 -8 13 0 5 -20 30 -44 55 -24 25 -57 59 -73
76 -46 49 -124 113 -135 110 -5 -1 -7 1 -4 6 5 9 -28 37 -38 31 -3 -2 -13 6
-21 19 -9 12 -23 22 -31 22 -8 0 -14 3 -14 8 0 8 -27 24 -147 88 -45 24 -90
46 -100 48 -10 1 -35 10 -55 20 -21 9 -44 16 -53 16 -8 0 -15 5 -15 12 0 6 -3
8 -6 5 -4 -3 -15 -2 -25 4 -14 7 -19 6 -19 -2 0 -8 -5 -8 -16 2 -15 12 -32 17
-76 21 -10 1 -18 5 -18 8 0 3 -8 6 -17 7 -10 1 -55 4 -101 7 -46 3 -87 8 -92
11 -5 3 -11 1 -15 -5 -4 -6 -12 -7 -18 -3 -19 12 -37 12 -37 1 0 -7 -5 -7 -13
1 -8 6 -17 8 -21 4z m-21 -665 c4 4 1 -3 -6 -16 -12 -19 -12 -24 1 -33 13 -9
13 -10 0 -6 -8 2 -15 15 -16 29 -1 14 -4 31 -8 39 -4 8 -1 6 7 -3 8 -10 17
-14 22 -10z m-2 -81 c3 -8 -1 -14 -8 -14 -7 0 -11 6 -8 14 3 7 6 13 8 13 2 0
5 -6 8 -13z"/>
<path d="M4170 3751 c0 -6 -9 -8 -20 -6 -11 2 -20 0 -20 -4 0 -5 -12 -11 -27
-14 -49 -9 -183 -59 -183 -68 0 -5 -7 -6 -15 -3 -8 4 -15 1 -15 -7 0 -7 -3 -9
-7 -6 -3 4 -21 -3 -40 -14 -18 -11 -33 -18 -33 -14 0 3 -7 -1 -16 -9 -8 -9
-20 -14 -25 -11 -5 4 -9 1 -9 -4 0 -6 -3 -10 -7 -9 -12 3 -83 -25 -83 -33 0
-4 -11 -10 -25 -13 -14 -4 -25 -11 -25 -16 0 -6 -6 -10 -12 -10 -18 0 -138
-61 -138 -70 0 -4 13 -6 30 -5 50 3 151 -60 135 -85 -3 -4 0 -10 6 -12 10 -3
16 -108 8 -137 -6 -22 -72 -102 -84 -101 -3 0 -6 0 -7 -1 -57 -15 -118 -5
-154 26 -16 14 -33 25 -37 25 -5 0 -5 5 -2 10 3 6 1 10 -4 10 -6 0 -11 9 -11
19 0 11 -4 22 -9 25 -15 9 -5 113 13 141 17 26 17 26 -3 15 -38 -20 -156 -104
-168 -120 -7 -8 -13 -11 -13 -7 0 5 -7 2 -15 -5 -32 -29 -43 -37 -47 -33 -2 2
-25 -15 -50 -39 -26 -24 -50 -41 -53 -38 -3 3 -5 0 -5 -6 0 -7 -5 -12 -11 -12
-12 0 -59 -50 -59 -62 0 -5 -3 -7 -7 -6 -15 3 -43 -14 -37 -23 3 -5 -1 -9 -8
-9 -8 0 -20 -9 -28 -20 -8 -11 -18 -20 -22 -20 -3 0 -47 -40 -97 -90 -50 -49
-88 -90 -85 -90 4 0 -10 -16 -30 -35 -21 -19 -41 -35 -46 -35 -5 0 -7 -6 -4
-14 3 -9 -3 -17 -15 -21 -12 -3 -19 -11 -16 -16 4 -5 -1 -9 -9 -9 -9 0 -16 -6
-16 -12 -1 -7 -19 -31 -40 -53 -22 -22 -40 -43 -40 -48 0 -4 -13 -21 -30 -37
-16 -16 -30 -32 -30 -35 0 -6 -89 -122 -112 -147 -10 -10 -18 -25 -18 -33 0
-7 -6 -18 -13 -22 -6 -4 -18 -20 -26 -35 -8 -15 -19 -25 -24 -21 -6 3 -7 1 -4
-4 4 -6 0 -16 -8 -23 -8 -7 -12 -16 -9 -21 3 -5 1 -9 -5 -9 -9 0 -16 -10 -57
-87 -10 -18 -22 -33 -26 -33 -5 0 -6 -5 -3 -10 3 -6 -1 -13 -9 -16 -9 -3 -13
-10 -11 -15 3 -5 -3 -16 -14 -25 -11 -10 -17 -24 -13 -32 3 -10 1 -13 -6 -8
-7 4 -12 2 -12 -4 0 -7 -17 -42 -37 -78 -45 -80 -48 -107 -17 -131 13 -10 20
-21 17 -25 -3 -3 1 -6 11 -6 9 0 15 -4 12 -9 -3 -5 4 -11 15 -14 12 -3 18 -10
15 -16 -4 -5 2 -12 11 -15 10 -4 36 -22 58 -42 22 -19 52 -43 68 -52 15 -9 27
-20 27 -24 0 -4 5 -8 10 -8 6 0 29 -13 52 -30 22 -16 47 -30 55 -30 7 0 13 -4
13 -10 0 -5 9 -10 20 -10 11 0 20 -3 20 -8 0 -7 55 -35 76 -38 7 -1 35 -13 63
-28 28 -14 51 -23 51 -21 0 3 12 0 28 -6 28 -11 68 -21 90 -22 6 0 12 -3 12
-7 0 -4 6 -7 13 -8 6 0 33 -3 59 -5 l48 -5 -6 47 c-18 138 -25 292 -13 285 5
-3 7 -10 4 -15 -4 -5 -2 -9 2 -9 5 0 9 -15 10 -32 2 -62 8 -98 16 -98 4 0 3
-9 -3 -20 -6 -11 -7 -20 -3 -20 4 0 8 -10 9 -22 6 -122 6 -124 44 -128 19 -1
54 -3 78 -3 23 -1 42 -5 42 -10 0 -4 4 -6 9 -2 6 3 37 6 70 7 39 1 62 6 65 15
6 15 36 18 36 3 0 -12 54 -7 107 9 17 5 34 7 37 3 3 -3 6 0 6 5 0 6 8 10 18 8
9 -1 23 2 30 8 6 5 12 6 12 2 0 -4 6 -3 13 2 6 6 26 14 42 18 40 11 36 10 70
24 17 7 53 23 80 35 28 11 52 24 53 29 2 4 12 7 23 7 10 0 19 4 19 10 0 5 11
12 25 16 14 3 25 9 25 13 0 3 16 15 35 25 19 11 35 23 35 28 0 5 5 6 10 3 6
-3 10 -1 10 5 0 6 13 16 30 21 16 6 27 15 24 21 -3 5 3 12 15 15 12 3 21 12
21 19 0 8 5 14 11 14 13 0 139 128 139 142 0 5 5 6 10 3 6 -3 10 0 10 7 0 7
16 31 35 53 19 22 35 43 35 46 0 3 11 19 25 35 14 16 25 35 25 42 0 6 5 12 10
12 6 0 10 7 10 15 0 8 9 24 19 34 11 11 17 21 15 24 -3 2 9 28 26 56 16 29 30
58 30 66 0 7 7 20 15 29 9 8 15 17 14 18 -3 5 12 51 27 86 8 18 12 37 9 42 -3
6 -1 10 6 10 7 0 10 3 6 6 -3 3 -1 18 5 33 5 14 12 37 15 51 2 13 9 30 15 37
7 9 7 13 -1 13 -7 0 -9 5 -4 13 9 14 12 31 16 74 1 18 4 33 7 33 3 0 5 10 6
23 1 47 13 157 18 165 2 4 1 14 -4 22 -5 8 -4 22 2 33 7 15 7 18 -2 12 -9 -6
-9 -2 -1 14 7 11 8 21 4 21 -7 0 -11 39 -13 155 -1 11 -6 23 -13 27 -9 6 -9 8
1 8 8 0 10 5 6 12 -4 7 -9 24 -10 38 -5 50 -12 86 -22 117 -6 17 -8 34 -5 37
3 2 1 11 -3 18 -9 15 -15 35 -17 61 -1 9 -5 17 -10 17 -4 0 -5 5 -2 10 3 6 2
10 -4 10 -6 0 -8 7 -5 15 4 8 1 15 -5 15 -6 0 -8 7 -5 15 4 8 1 15 -6 15 -6 0
-8 4 -5 10 3 5 -2 22 -12 37 -10 15 -17 30 -17 33 1 3 -3 16 -9 30 -6 14 -10
28 -9 33 1 4 -3 7 -9 7 -6 0 -9 6 -6 14 3 8 -1 17 -9 20 -9 3 -13 10 -10 15 3
5 -1 14 -9 21 -8 7 -12 16 -9 21 3 5 0 9 -5 9 -6 0 -11 6 -11 13 0 7 -9 18
-20 25 -11 7 -20 8 -20 3z m-817 -1156 c-3 -9 -8 -14 -10 -11 -3 3 -2 9 2 15
9 16 15 13 8 -4z m-244 -942 c2 -21 4 -48 4 -60 1 -13 4 -23 7 -23 3 0 6 -19
7 -42 1 -69 11 -161 19 -182 6 -15 4 -17 -7 -11 -12 8 -12 6 0 -8 9 -11 10
-17 2 -17 -6 0 -14 -1 -18 -2 -5 -1 -9 14 -10 33 -9 128 -11 156 -18 173 -6
14 -5 17 4 11 10 -5 11 -3 4 11 -5 11 -11 37 -12 60 -1 22 -4 49 -5 60 -4 21
1 34 13 34 4 0 8 -17 10 -37z"/>
</g>
</svg>
